<svg xmlns="http://www.w3.org/2000/svg" xmlns:xlink="http://www.w3.org/1999/xlink" width="40" zoomAndPan="magnify" viewBox="0 0 30 30.000001" height="40" preserveAspectRatio="xMidYMid meet" version="1.0"><defs><clipPath id="id1"><path d="M 2.761719 5.679688 L 27.4375 5.679688 L 27.4375 23.101562 L 2.761719 23.101562 Z M 2.761719 5.679688 " clip-rule="nonzero"/></clipPath><clipPath id="id2"><path d="M 2.761719 10 L 27.4375 10 L 27.4375 19 L 2.761719 19 Z M 2.761719 10 " clip-rule="nonzero"/></clipPath></defs><g clip-path="url(#id1)"><path fill="rgb(77.648926%, 3.919983%, 11.369324%)" d="M 27.433594 20.421875 C 27.433594 21.902344 26.207031 23.101562 24.691406 23.101562 L 5.503906 23.101562 C 3.992188 23.101562 2.765625 21.902344 2.765625 20.421875 L 2.765625 8.359375 C 2.765625 6.882812 3.992188 5.679688 5.503906 5.679688 L 24.691406 5.679688 C 26.207031 5.679688 27.433594 6.882812 27.433594 8.359375 Z M 27.433594 20.421875 " fill-opacity="1" fill-rule="nonzero"/></g><g clip-path="url(#id2)"><path fill="rgb(100%, 76.858521%, 0%)" d="M 2.765625 10.371094 L 27.433594 10.371094 L 27.433594 18.410156 L 2.765625 18.410156 Z M 2.765625 10.371094 " fill-opacity="1" fill-rule="nonzero"/></g><path fill="rgb(91.758728%, 34.899902%, 43.139648%)" d="M 8.929688 13.71875 L 8.929688 15.730469 C 8.929688 16.839844 9.851562 17.742188 10.988281 17.742188 C 12.121094 17.742188 13.042969 16.839844 13.042969 15.730469 L 13.042969 13.71875 Z M 8.929688 13.71875 " fill-opacity="1" fill-rule="nonzero"/><path fill="rgb(95.689392%, 63.529968%, 69.799805%)" d="M 10.988281 13.050781 L 13.042969 13.050781 L 13.042969 15.0625 L 10.988281 15.0625 Z M 10.988281 13.050781 " fill-opacity="1" fill-rule="nonzero"/><path fill="rgb(86.669922%, 18.03894%, 26.669312%)" d="M 8.929688 13.050781 L 10.988281 13.050781 L 10.988281 15.0625 L 8.929688 15.0625 Z M 8.929688 13.050781 " fill-opacity="1" fill-rule="nonzero"/><path fill="rgb(91.758728%, 34.899902%, 43.139648%)" d="M 13.042969 12.046875 C 13.042969 12.179688 12.992188 12.308594 12.886719 12.429688 C 12.78125 12.554688 12.632812 12.664062 12.441406 12.757812 C 12.246094 12.851562 12.027344 12.921875 11.773438 12.972656 C 11.523438 13.023438 11.257812 13.050781 10.988281 13.050781 C 10.714844 13.050781 10.453125 13.023438 10.199219 12.972656 C 9.949219 12.921875 9.726562 12.851562 9.535156 12.757812 C 9.339844 12.664062 9.191406 12.554688 9.089844 12.429688 C 8.984375 12.308594 8.929688 12.179688 8.929688 12.046875 C 8.929688 11.914062 8.984375 11.785156 9.089844 11.660156 C 9.191406 11.539062 9.339844 11.429688 9.535156 11.335938 C 9.726562 11.242188 9.949219 11.167969 10.199219 11.117188 C 10.453125 11.066406 10.714844 11.039062 10.988281 11.039062 C 11.257812 11.039062 11.523438 11.066406 11.773438 11.117188 C 12.027344 11.167969 12.246094 11.242188 12.441406 11.335938 C 12.632812 11.429688 12.78125 11.539062 12.886719 11.660156 C 12.992188 11.785156 13.042969 11.914062 13.042969 12.046875 Z M 13.042969 12.046875 " fill-opacity="1" fill-rule="nonzero"/><path fill="rgb(100%, 67.449951%, 19.999695%)" d="M 13.042969 11.542969 C 13.042969 11.609375 12.992188 11.675781 12.886719 11.734375 C 12.78125 11.796875 12.632812 11.851562 12.441406 11.898438 C 12.246094 11.945312 12.027344 11.980469 11.773438 12.007812 C 11.523438 12.03125 11.257812 12.046875 10.988281 12.046875 C 10.714844 12.046875 10.453125 12.03125 10.199219 12.007812 C 9.949219 11.980469 9.726562 11.945312 9.535156 11.898438 C 9.339844 11.851562 9.191406 11.796875 9.089844 11.734375 C 8.984375 11.675781 8.929688 11.609375 8.929688 11.542969 C 8.929688 11.476562 8.984375 11.414062 9.089844 11.351562 C 9.191406 11.289062 9.339844 11.234375 9.535156 11.1875 C 9.726562 11.140625 9.949219 11.105469 10.199219 11.078125 C 10.453125 11.054688 10.714844 11.039062 10.988281 11.039062 C 11.257812 11.039062 11.523438 11.054688 11.773438 11.078125 C 12.027344 11.105469 12.246094 11.140625 12.441406 11.1875 C 12.632812 11.234375 12.78125 11.289062 12.886719 11.351562 C 12.992188 11.414062 13.042969 11.476562 13.042969 11.542969 Z M 13.042969 11.542969 " fill-opacity="1" fill-rule="nonzero"/><path fill="rgb(59.999084%, 66.668701%, 70.979309%)" d="M 7.5625 13.050781 L 8.246094 13.050781 L 8.246094 17.742188 L 7.5625 17.742188 Z M 13.726562 13.050781 L 14.414062 13.050781 L 14.414062 17.742188 L 13.726562 17.742188 Z M 13.726562 13.050781 " fill-opacity="1" fill-rule="nonzero"/><path fill="rgb(39.99939%, 45.878601%, 49.798584%)" d="M 6.875 17.070312 L 8.929688 17.070312 L 8.929688 17.742188 L 6.875 17.742188 Z M 13.042969 17.070312 L 15.097656 17.070312 L 15.097656 17.742188 L 13.042969 17.742188 Z M 7.5625 12.378906 L 8.246094 12.378906 L 8.246094 13.050781 L 7.5625 13.050781 Z M 13.726562 12.378906 L 14.414062 12.378906 L 14.414062 13.050781 L 13.726562 13.050781 Z M 13.726562 12.378906 " fill-opacity="1" fill-rule="nonzero"/></svg>