<?xml version="1.0" ?><!DOCTYPE svg  PUBLIC '-//W3C//DTD SVG 1.1//EN'  'http://www.w3.org/Graphics/SVG/1.1/DTD/svg11.dtd'><svg height="512px" id="Untitled-P%E1gina%201" style="background-color:#ffffff00" version="1.1" viewBox="0 0 512 512" width="512px" xml:space="preserve" xmlns="http://www.w3.org/2000/svg" xmlns:xlink="http://www.w3.org/1999/xlink"><g id="Camada%201"><g><g><path d="M 136 171.6611 L 187.456 171.6611 L 187.456 121.6253 C 187.456 99.5889 187.9832 65.5704 204.0354 44.4476 C 220.8619 22.1535 244.0073 7 283.8102 7 C 348.6986 7 376 16.2831 376 16.2831 L 363.1319 92.5328 C 363.1319 92.5328 341.7332 86.3221 321.739 86.3221 C 301.7283 86.3221 283.8102 93.502 283.8102 113.5052 L 283.8102 171.6611 L 365.8299 171.6611 L 360.1208 246.1582 L 283.8102 246.1582 L 283.8102 505 L 187.456 505 L 187.456 246.1582 L 136 246.1582 L 136 171.6611 Z" fill="none" stroke="#357dff" stroke-width="13"/></g><path d="M 136 171.6611 L 187.456 171.6611 L 187.456 121.6253 C 187.456 99.5889 187.9832 65.5704 204.0354 44.4476 C 220.8619 22.1535 244.0073 7 283.8102 7 C 348.6986 7 376 16.2831 376 16.2831 L 363.1319 92.5328 C 363.1319 92.5328 341.7332 86.3221 321.739 86.3221 C 301.7283 86.3221 283.8102 93.502 283.8102 113.5052 L 283.8102 171.6611 L 365.8299 171.6611 L 360.1208 246.1582 L 283.8102 246.1582 L 283.8102 505 L 187.456 505 L 187.456 246.1582 L 136 246.1582 L 136 171.6611 Z" fill="none" stroke="#ffffff" stroke-width="4"/></g></g></svg>